<?xml version="1.0" encoding="UTF-8" standalone="no"?>
<!DOCTYPE svg PUBLIC "-//W3C//DTD SVG 20010904//EN"
"http://www.w3.org/TR/2001/REC-SVG-20010904/DTD/svg10.dtd">
<svg height="310" width="310" version="1.1" xmlns="http://www.w3.org/2000/svg" xmlns:xlink="http://www.w3.org/1999/xlink" xml:space="preserve">
<polyline points="187.9179606750063, 214.46576972490323 307.91796067500627, 214.46576972490323 210.83592135001257, 285.0 247.9179606750063, 170.87321804458156 284.99999999999994, 285.0 236.4589803375031, 249.73288486245158 296.45898033750314, 249.73288486245164 247.91796067500627, 285.0 266.4589803375032, 227.9366090222908 284.99999999999994, 285.00000000000006 280.9549150281252, 282.0610737385377 276.9098300562504, 279.1221474770753 272.86474508437567, 276.18322121561295 268.8196601125009, 273.2442949541506 264.77457514062615, 270.3053686926882 264.77457514062615, 270.3053686926882 264.77457514062615, 270.3053686926882 264.77457514062615, 270.3053686926882 264.77457514062615, 270.3053686926882 264.77457514062615, 270.3053686926882 ,236.45898033750314, 249.7328848624516 296.45898033750314, 249.7328848624516 247.91796067500627, 285.0 266.45898033750314, 227.93660902229078 284.99999999999994, 285.0 280.9549150281252, 282.06107373853763 276.9098300562504, 279.12214747707526 272.86474508437567, 276.1832212156129 268.8196601125009, 273.2442949541505 264.77457514062615, 270.30536869268815 167.69253581563248, 199.77113841759132 287.6925358156325, 199.7711384175914 190.61049649063875, 270.3053686926881 227.69253581563257, 156.1785867372697 264.7745751406261, 270.3053686926882 260.72949016875134, 267.36644243122583 256.6844051968766, 264.42751616976346 252.63932022500185, 261.4885899083011 248.59423525312712, 258.5496636468387 244.5491502812524, 255.61073738537635 147.4671109562588, 185.07650711027944 267.4671109562588, 185.0765071102796 170.38507163126502, 255.61073738537624 207.46711095625892, 141.4839554299579 244.5491502812524, 255.6107373853764 ,187.9179606750063, 214.46576972490323 307.91796067500627, 214.46576972490323 210.83592135001257, 285.0 247.9179606750063, 170.87321804458156 284.99999999999994, 285.0 280.9549150281252, 282.06107373853763 276.9098300562504, 279.12214747707526 272.86474508437567, 276.1832212156129 268.8196601125009, 273.2442949541505 264.77457514062615, 270.30536869268815 167.69253581563248, 199.77113841759132 287.6925358156325, 199.7711384175914 190.61049649063875, 270.3053686926881 227.69253581563257, 156.1785867372697 264.7745751406261, 270.3053686926882 216.2335554781293, 235.03825355513976 276.2335554781293, 235.03825355513985 227.6925358156324, 270.30536869268815 246.23355547812935, 213.241977714979 264.7745751406261, 270.30536869268826 260.72949016875134, 267.3664424312259 256.6844051968766, 264.4275161697635 252.63932022500185, 261.48858990830115 248.59423525312712, 258.5496636468388 244.5491502812524, 255.6107373853764 147.46711095625886, 185.07650711027944 267.46711095625886, 185.0765071102797 170.38507163126502, 255.61073738537624 207.46711095625818, 141.48395542995763 244.54915028125157, 255.61073738537618 196.00813061875456, 220.343622247828 256.00813061875454, 220.34362224782816 207.46711095625784, 255.61073738537675 226.00813061875488, 198.5473464076676 244.54915028125194, 255.61073738537675 240.5040653093772, 252.67181112391438 236.45898033750248, 249.732884862452 232.41389536562775, 246.79395860098964 228.36881039375302, 243.85503233952727 224.3237254218783, 240.9161060780649 ,236.45898033750314, 249.7328848624516 296.45898033750314, 249.7328848624516 247.91796067500627, 285.0 266.45898033750314, 227.93660902229078 284.99999999999994, 285.0 280.9549150281252, 282.06107373853763 276.9098300562504, 279.12214747707526 272.86474508437567, 276.1832212156129 268.8196601125009, 273.2442949541505 264.77457514062615, 270.30536869268815 167.69253581563248, 199.77113841759132 287.6925358156325, 199.7711384175914 190.61049649063875, 270.3053686926881 227.69253581563257, 156.1785867372697 264.7745751406261, 270.3053686926882 216.2335554781293, 235.03825355513976 276.2335554781293, 235.03825355513985 227.6925358156324, 270.30536869268815 246.23355547812935, 213.241977714979 264.7745751406261, 270.30536869268826 260.72949016875134, 267.3664424312259 256.6844051968766, 264.4275161697635 252.63932022500185, 261.48858990830115 248.59423525312712, 258.5496636468388 244.5491502812524, 255.6107373853764 147.46711095625886, 185.07650711027944 267.46711095625886, 185.0765071102797 170.38507163126502, 255.61073738537624 207.46711095625818, 141.48395542995763 244.54915028125157, 255.61073738537618 240.5040653093768, 252.67181112391384 236.45898033750206, 249.7328848624515 232.4138953656273, 246.79395860098916 228.36881039375254, 243.85503233952682 224.32372542187778, 240.91610607806447 127.24168609688378, 170.38187580296812 247.24168609688377, 170.38187580296847 150.15964677189038, 240.91610607806564 187.24168609688445, 126.78932412264733 224.32372542187858, 240.91610607806564 175.78270575938186, 205.64899094051708 235.78270575938186, 205.64899094051688 187.24168609688488, 240.91610607806507 205.78270575938154, 183.8527151003558 224.32372542187815, 240.91610607806507 220.2786404500034, 237.97717981660273 216.23355547812864, 235.0382535551404 212.18847050625388, 232.09932729367804 208.14338553437912, 229.1604010322157 204.09830056250436, 226.22147477075336 107.01626123751046, 155.68724449565687 227.01626123751046, 155.6872444956574 129.93422191251696, 226.22147477075444 167.01626123751117, 112.09469281533619 204.09830056250513, 226.22147477075453 200.05321559063037, 223.28254850929218 196.00813061875562, 220.34362224782984 191.96304564688086, 217.4046959863675 187.9179606750061, 214.46576972490516 183.87287570313134, 211.52684346344282 86.790836378137, 140.99261318834692 206.790836378137, 140.9926131883467 109.70879705314292, 211.52684346344296 146.79083637813804, 97.400061508025 183.8728757031327, 211.52684346344313 ,187.9179606750063, 214.46576972490323 307.91796067500627, 214.46576972490323 210.83592135001257, 285.0 247.9179606750063, 170.87321804458156 284.99999999999994, 285.0 280.9549150281252, 282.06107373853763 276.9098300562504, 279.12214747707526 272.86474508437567, 276.1832212156129 268.8196601125009, 273.2442949541505 264.77457514062615, 270.30536869268815 167.69253581563248, 199.77113841759132 287.6925358156325, 199.7711384175914 190.61049649063875, 270.3053686926881 227.69253581563257, 156.1785867372697 264.7745751406261, 270.3053686926882 216.2335554781293, 235.03825355513976 276.2335554781293, 235.03825355513985 227.6925358156324, 270.30536869268815 246.23355547812935, 213.241977714979 264.7745751406261, 270.30536869268826 260.72949016875134, 267.3664424312259 256.6844051968766, 264.4275161697635 252.63932022500185, 261.48858990830115 248.59423525312712, 258.5496636468388 244.5491502812524, 255.6107373853764 147.46711095625886, 185.07650711027944 267.46711095625886, 185.0765071102797 170.38507163126502, 255.61073738537624 207.46711095625818, 141.48395542995763 244.54915028125157, 255.61073738537618 240.5040653093768, 252.67181112391384 236.45898033750206, 249.7328848624515 232.4138953656273, 246.79395860098916 228.36881039375254, 243.85503233952682 224.32372542187778, 240.91610607806447 127.24168609688378, 170.38187580296812 247.24168609688377, 170.38187580296847 150.15964677189038, 240.91610607806564 187.24168609688445, 126.78932412264733 224.32372542187858, 240.91610607806564 175.78270575938186, 205.64899094051708 235.78270575938186, 205.64899094051688 187.24168609688488, 240.91610607806507 205.78270575938154, 183.8527151003558 224.32372542187815, 240.91610607806507 220.2786404500034, 237.97717981660273 216.23355547812864, 235.0382535551404 212.18847050625388, 232.09932729367804 208.14338553437912, 229.1604010322157 204.09830056250436, 226.22147477075336 107.01626123751046, 155.68724449565687 227.01626123751046, 155.6872444956574 129.93422191251696, 226.22147477075444 167.01626123751117, 112.09469281533619 204.09830056250513, 226.22147477075453 155.55728090000795, 190.9543596332066 215.55728090000795, 190.95435963320648 167.01626123751092, 226.2214747707546 185.5572809000085, 169.15808379304565 204.09830056250584, 226.2214747707547 200.0532155906311, 223.28254850929233 196.00813061875638, 220.34362224782996 191.96304564688165, 217.40469598636759 187.91796067500692, 214.46576972490521 183.8728757031322, 211.52684346344284 86.79083637813841, 140.99261318834618 206.7908363781384, 140.9926131883469 109.7087970531438, 211.5268434634424 146.7908363781366, 97.40006150802365 183.87287570313038, 211.52684346344205 179.82779073125565, 208.58791720197965 175.78270575938092, 205.64899094051725 171.7376207875062, 202.71006467905485 167.69253581563146, 199.77113841759245 163.64745084375673, 196.83221215613005 66.56541151876348, 126.29798188103265 186.56541151876348, 126.2979818810343 89.48337219377032, 196.8322121561318 126.565411518764, 82.70543020071335 163.64745084375687, 196.83221215613204 115.10643118126053, 161.56509701858295 175.10643118126052, 161.56509701858255 126.56541151876365, 196.8322121561309 145.10643118126094, 139.76882117842183 163.64745084375693, 196.83221215613133 159.60236587188217, 193.893285894669 155.5572809000074, 190.95435963320665 151.51219592813266, 188.0154333717443 147.4671109562579, 185.07650711028197 143.42202598438314, 182.13758084881962 46.33998665938901, 111.60335057372346 166.339986659389, 111.60335057372357 69.25794733439474, 182.13758084881954 106.3399866593902, 68.01079889340168 143.42202598438456, 182.1375808488199 94.88100632188778, 146.87046571127144 154.88100632188778, 146.87046571127198 106.33998665939038, 182.1375808488196 124.88100632188693, 125.07418987111029 143.42202598438365, 182.13758084881954 139.37694101250895, 179.19865458735714 135.33185604063425, 176.25972832589474 131.28677106875955, 173.32080206443234 127.24168609688483, 170.38187580296994 123.19660112501012, 167.44294954150755 ,"  style="fill:white;stroke:rgb(255,0,0);stroke-width:3" /></svg>